**ABCDEFGHIJKLMNOPQRSTUVWXYZabcdefghijklmnopqrstuvwxyz**************************
**PARASOLID !"#$%&'()*+,-./:;<=>?@[\]^_`{|}~0123456789**************************
**PART1;
MC=AMD64;
MC_MODEL=AMD64 Family 25 Model 117 Stepping 2, AuthenticAMD;
MC_ID=unknown;
OS=Windows_NT;
OS_RELEASE=unknown;
FRU=Parasolid Version 35.1, build 210,  4-20-2023;
APPL=SOLIDWORKS 2024-2023282;
SITE=;
USER=unknown;
FORMAT=text;
GUISE=transmit;
KEY=makeProjectedPlanarWire;
FILE=makeProjectedPlanarWire.x_t;
DATE=Wed Aug 20 00:24:01 2025;
**PART2;
SCH=SCH_3501210_35102;
USFLD_SIZE=0;
**PART3;
**END_OF_HEADER*****************************************************************
T51 : TRANSMIT FILE created by modeller version 350121023 SCH_3501210_35102_1300
6231 0 12 36 CCCI7 lattice222 0 CCCI4 mesh1006 0 I8 polyline1008 0 CCCCCCCDI5 ow
ner1040 0 CCCI16 boundary_lattice222 0 CCCI13 boundary_mesh1006 0 I17 boundary_p
olyline1008 0 CCCA16 index_map_offset0 0 1 dA9 index_map82 0 A17 node_id_index_m
ap82 0 A20 schema_embedding_map82 0 A5 child12 0 A14 lowest_node_id0 0 1 dA16 me
sh_offset_data206 0 Z1 97 2 3 0 0 0 0 0 0 0 1e3 1e-8 0 4 0 1 0 3 1 5 0 6 7 8 0 0
 9 10 11 0 0 0 0 0 0 0 81 255 2 2 88 12 1 0 0 0 0 13 0 70 11 CI9 list_type0 0 1
 uI10 notransmit0 0 1 lCCCDCCDI12 finger_index0 0 1 dI12 finger_block1012 0 CZ3
 0 4 T1 0 0 2 20 1 14 14 13 255 5 93 0 1 0 15 0 0 9 15 67 255 6 29 0 1 16 0 17 +
18 0 0 -1 .1584756833549285 31 255 7 51 0 19 20 0 0 +0 -.1105 .09 0 0 1 1 0 0 .0
025 29 255 8 85 0 11 21 0 .0375 -.007 .09 19 9 CCCCCCI5 frame230 0 CA5 owner12 0
 Z9 92 0 1 0 0 5 0 V0 16 255 10 52 0 ?22 0 19 23 0 0 1 18 255 11 83 0 24 0 25 8
 ?1 17 255 24 0 0 0 0 11 26 27 0 22 -18 25 80 0 28 11 29 21 ?1 17 28 0 30 22 31
 25 32 19 0 33 +18 29 77 0 31 25 34 35 ?1 29 21 82 0 25 35 8 .002474239745336305
 -.110857963241965 .09 29 35 79 0 29 36 21 -.002474239745336305 -.11085796324196
5 .09 29 36 76 0 34 37 35 -.0375 -.007 .09 18 34 74 0 38 29 39 36 ?1 29 37 73 0
 39 40 36 -.0375 .007 .09 18 39 71 0 41 34 42 37 ?1 29 40 70 0 42 43 37 .0375 .0
07 .09 18 42 68 0 26 39 44 40 ?1 29 43 67 0 44 45 40 .0325 .002 .09 18 44 65 0 4
6 42 47 43 ?1 29 45 64 0 47 48 43 -.0325 .002 .09 18 47 62 0 49 44 50 45 ?1 29 4
8 61 0 50 51 45 -.0325 -.003011168903026795 .09 18 50 59 0 52 47 53 48 ?1 29 51
 58 0 53 54 48 1734723475976805e-33 -.0939481866236458 .09 18 53 56 0 55 50 56 5
1 ?1 29 54 55 0 56 0 51 .0325 -.0030111689030268 .09 18 56 53 0 57 53 0 54 ?1 17
 57 0 58 55 59 56 46 60 0 61 -15 255 58 7 0 57 15 30 17 55 0 58 52 57 53 61 62 0
 63 -17 59 0 58 57 49 44 64 65 0 0 -17 46 0 0 0 0 44 57 60 0 59 +16 60 9 0 ?46 6
2 0 66 0 0 1 17 61 0 0 0 0 56 55 62 0 0 +16 62 12 0 ?61 67 60 68 0 0 1 16 67 23
 0 ?63 69 62 70 0 0 1 38 12 CCCCCCCCCCCA17 intersection_data204 0 Z68 22 0 62 66
 23 0 +71 72 73 74 75 76 30 255 66 11 0 60 0 68 0 +.0325 -.007 .09 0 1 0 134 255
 23 20 0 10 68 70 77 +78 79 60 255 71 18 0 1 80 81 82 +UF81 .005 .01270282773730
296 50 255 72 31 0 1 81 16 83 +-.01874355993633405 -.03296449081049125 .09 0 0 1
 1 0 0 40 255 6 73 0 1 6 .00252874034589103 .341661912494173 ??-260208521396521e
-32 -.0939481866236458 .09 .00933265223152108 -.0473617550182386 .09 .0166764358
61587 -.0240994989903112 .09 .0218471644386923 -.01346281624731206 .09 .02763575
76098855 -.00616028325291917 .09 .0325 -.0030111689030268 .09 41 3 CI8 term_use0
 0 1 cCZ1 74 L?-260208521396521e-32 -.0939481866236458 .09 41 1 75 L?.0325 -.003
0111689030268 .09 204 2 17 INTERSECTION_DATA17 Intersection data7 uv_type0 0 1 u
6 values0 1 1 fT24 76 4 .0808349547813262 462223186652937e-47 .01874355993633405
 -.0609836958131545 .367086051022535 462223186652937e-47 .02807621216785515 -.01
43972642077473 .572650504329836 462223186652937e-47 .03541999579792105 .00886499
182018006 .70481804462603 462223186652937e-47 .04059072437502635 .01950167456317
92 .833634620168836 462223186652937e-47 .0463793175462196 .0268042075575721 .921
976869177786 462223186652937e-47 .0512435599363341 .0299533219074645 67 81 19 0
 1 71 72 84 +23 0 0 -1 .1584756833549285 60 16 28 0 1 72 6 85 +UF6 .005 ?141 255
 83 68 86 86 72 141 86 70 83 83 72 38 70 32 0 67 23 18 0 +16 72 87 88 89 90 134
 18 30 0 91 70 92 93 +94 95 40 5 87 0 1 5 .00626966179060115 .3792327748613805 ?
?-.0325 -.003011168903026795 .09 -.02702249099937655 -.00673447109131744 .09 -.0
2092288471644575 -.01505519993539625 .09 -.00872012889881915 -.049791286067613 .
09 0 -.0939481866236457 .09 41 1 88 L?-.0325 -.003011168903026795 .09 41 1 89 L?
0 -.0939481866236457 .09 204 20 90 4 .0780231308222135 0 -.01375644006366594 .02
99533219074645 .1788020694134305 0 -.0082789310630425 .02623001971917385 .317833
471958952 0 -.00217932478011166 .017909290875095 .650849364894183 0 .01002343103
751492 -.0168267952571217 .919165045218674 0 .01874355993633405 -.06098369581315
45 16 91 48 0 ?31 19 96 18 0 0 1 30 92 35 0 69 18 97 0 +-.0325 -.007 .09 0 -1 0
 141 93 6 93 93 18 136 255 94 2 3 3 2 5 FFF1 98 99 100 135 255 95 2 0 45 255 9 9
8 -.0375 -.007 .09 -.0175 -.007 .09 -.002474239745336305 -.110857963241965 .09 1
27 255 2 99 3 3 128 255 2 100 0 1 16 69 33 0 ?101 65 67 92 0 0 1 30 97 38 0 65 9
2 102 0 +-.0375 .002 .09 -1 0 0 16 65 36 0 ?64 27 69 97 0 0 1 30 102 41 0 27 97
 103 0 +.0375 -.007 .09 0 1 0 16 27 39 0 ?26 104 65 102 0 0 1 30 103 44 0 104 10
2 20 0 +-.0375 .007 .09 -1 0 0 16 104 42 0 ?41 96 27 103 0 0 1 30 20 47 0 96 103
 7 0 +-.0375 -.007 .09 0 -1 0 16 96 45 0 ?38 91 104 20 0 0 1 17 38 0 30 31 41 34
 105 96 0 106 +15 30 8 0 26 15 0 17 31 0 30 28 38 29 106 91 0 32 +17 41 0 30 38
 26 39 107 104 0 105 +17 105 0 0 0 0 39 38 96 0 0 -17 106 0 0 0 0 34 31 91 0 0 -
17 26 0 30 41 22 42 24 27 0 107 +17 107 0 0 0 0 42 41 104 0 0 -17 22 0 30 26 28
 11 33 10 0 0 +17 33 0 0 0 0 25 22 10 0 0 -17 32 0 0 0 0 29 28 19 0 0 -16 19 49
 0 ?28 10 91 7 0 0 1 14 255 15 1 108 ?0 0 58 5 80 +0 0 0 0 5 81 1 108 97 109 15
 0 0 0 0 110 50 80 3 0 15 0 71 0 +-.01874355993633405 -.03296449081049125 .09 0
 0 1 1 0 0 80 7 CCCCCDI12 legal_owners0 16 1 lCZ1 109 111 112 9000 1 1 1 1 1 1 1
 1 0 FFFFTFTFFFFFFFFF1 82 255 1 110 -1261174220 79 255 14 112 SWEntUnchanged17 6
4 0 0 0 0 47 59 65 0 0 +17 101 0 0 0 0 50 49 69 0 0 +17 49 0 58 59 52 47 101 69
 0 64 -17 52 0 58 49 55 50 63 67 0 101 -17 63 0 0 0 0 53 52 67 0 0 +141 85 70 85
 85 16 141 84 71 84 84 81 141 82 68 82 82 71 141 77 81 77 77 23 136 78 2 3 3 2 5
 FFF1 113 114 115 135 79 2 0 45 9 113 .002474239745336305 -.110857963241965 .09
 .0175 -.007 .09 .0375 -.007 .09 127 2 114 3 3 128 2 115 0 1 141 17 16 17 17 6 7
4 4 CI16 index_map_offset0 0 1 dCCZ20 14 2 0 0 2 108 0 0 0 0 0 0 0 0 0 0 0 0 0 0
 0 0 0 0 80 2 12 116 117 9000 0 0 0 0 3 5 0 0 0 FFTFTTTFFTFFFFFF10 10 98 255 6 1
3 20999 -27036 45 25289 20280 53 79 23 117 SWIMPLICITBODYNAME_ID_U1 0 
